<?xml version="1.0" encoding="UTF-8" standalone="no"?>
<svg
   version="1.1"
   id="Layer_1"
   x="0px"
   y="0px"
   width="24"
   height="24"
   viewBox="0 0 24 24"
   enable-background="new 0 0 100 100"
   xml:space="preserve"
   xmlns="http://www.w3.org/2000/svg"
   xmlns:svg="http://www.w3.org/2000/svg"
   xmlns:rdf="http://www.w3.org/1999/02/22-rdf-syntax-ns#"
   xmlns:cc="http://creativecommons.org/ns#"
   xmlns:dc="http://purl.org/dc/elements/1.1/"><metadata
   id="metadata31"><rdf:RDF><cc:Work
       rdf:about=""><dc:format>image/svg+xml</dc:format><dc:type
         rdf:resource="http://purl.org/dc/dcmitype/StillImage" /></cc:Work></rdf:RDF></metadata><defs
   id="defs29" />
<rect
   style="fill:#9e25d0;fill-opacity:1;stroke:none;stroke-width:0.238736"
   id="rect3010"
   width="24"
   height="24"
   x="0"
   y="0"
   ry="0" />


<path
   id="path4"
   style="color:#000000;display:inline;fill:#ffffff;fill-opacity:1;stroke-width:0.238736;stroke-linejoin:round;-inkscape-stroke:none"
   d="m 18.167724,0 -3.663107,3.556795 0.0061,0.00233 C 12.307098,5.6834197 10.465416,7.4259569 9.0565847,8.7493053 7.2359409,10.459477 6.2015432,11.399901 5.776761,11.849611 c -0.4036579,0.427345 -0.6985285,0.894012 -0.8556266,1.42822 -0.029613,0.100699 -0.048392,0.217003 -0.066212,0.332925 -0.9040972,1.176978 -1.4176885,2.34766 -1.3354301,3.581974 v 9.32e-4 c 0.080166,1.19135 0.7408552,1.838321 0.9069174,1.983093 0.1020916,0.07279 0.2007382,0.150085 0.3012177,0.22521 -0.1273689,0.06018 -0.2430816,0.142424 -0.3417842,0.242933 l -1.4669216,1.553183 c -0.4526685,0.479265 -0.4311673,1.23473 0.048027,1.687473 l 1.1796923,1.114413 H 18.073069 c 1.220055,-1.291694 2.234757,-2.365983 3.390807,-3.583385 0.479449,0.452859 1.235278,0.431146 1.687939,-0.04849 l 0.848166,-0.898058 V 16.587963 L 16.027959,9.0579835 C 15.548694,8.605315 14.793229,8.6268162 14.340486,9.1060105 l -1.467388,1.5531835 c -0.43932,0.470173 -0.41365,1.2484 0.04127,1.703491 l -1.852676,1.961473 -0.923775,0.978022 c -0.2052178,0.188899 -0.4286766,0.46984 -0.6933881,0.67915 -0.7986322,0.631487 -1.8362486,1.170408 -2.3850298,1.193215 -0.2603107,0.01088 -0.3640122,-0.03102 -0.528763,-0.172058 -0.081692,-0.456317 0.6282446,-1.430479 0.6663188,-1.48231 0.024184,-0.0078 0.050486,-0.01456 0.073673,-0.02285 C 7.7952034,15.309923 8.2443016,14.98847 8.647662,14.561501 9.0452524,14.140815 10.030784,12.975705 11.681289,11.026155 13.062953,9.3941543 15.0692,7.0187272 17.197398,4.502877 L 21.053074,0 Z" /><path
   id="path3780"
   style="display:inline;stroke-width:0.238736"
   d="M 17.333081,2.4922743 C 11.074628,8.585037 7.2000562,12.082889 6.6179326,12.699175 6.1656141,13.178037 5.9353083,13.731074 6.0019749,14.092891 5.072643,15.23567 4.6254282,16.260925 4.6842635,17.14377 c 0.04571,0.679283 0.3762025,1.046474 0.4812025,1.145654 0.015792,0.01492 0.02631,0.024 0.030774,0.02658 0.5298581,0.500486 1.1738112,0.738909 1.9136191,0.707349 0.5557504,-0.02332 1.1228888,-0.199888 1.6669562,-0.456023 l -1.0132297,1.072913 7.5089974,4.359732 h 1.078042 L 17.03326,23.277238 8.8560831,18.530027 C 9.1536901,18.38509 9.443813,18.217394 9.720569,18.037634 l 7.918857,4.598001 1.064055,-1.126536 -7.681987,-4.460448 c 0.181258,-0.15695 0.343898,-0.30509 0.487264,-0.441103 l 7.636757,4.433405 1.064055,-1.126536 -8.205155,-4.763998 -1.06452,1.126536 c -0.89633,0.826396 -2.4592807,2.062087 -3.8570797,2.12018 C 6.5104871,18.42105 6.0340877,18.245517 5.6116972,17.847855 5.5994047,17.837229 5.334695,17.601741 5.3076818,17.07476 5.2818195,16.559053 5.4903421,15.70882 6.4999633,14.471511 6.8589322,14.463335 7.3422818,14.207285 7.7537944,13.771623 8.3359294,13.155673 11.950888,8.8495174 17.333081,2.4922743 Z m -2.151423,7.463301 -1.467388,1.5536497 8.542743,8.069001 1.467387,-1.553184 z M 7.8638367,12.57095 c 0.1497754,0.141475 -0.016273,0.560137 -0.3706937,0.935361 -0.1571867,0.166411 -0.32419,0.293371 -0.4756072,0.373957 0.07886,-0.08438 0.2380951,-0.299719 0.03264,-0.493788 -0.035187,-0.03324 -0.17949,-0.149956 -0.3711602,-0.03824 C 6.749073,13.231858 6.838913,13.110457 6.949925,12.992933 7.3271838,12.593532 7.724064,12.438934 7.8638367,12.57095 Z m 6.4011113,0.186511 -1.654366,1.750886 8.205155,4.763998 0.163664,-0.17299 z m -7.1075276,7.524383 -0.7204048,0.762837 1.5471216,1.461326 2.5729408,1.493966 h 3.004252 z m -1.9304054,0.213091 -1.4669214,1.552717 2.0670257,1.952321 h 3.1105636 z" /></svg>
